<svg version="1.1" id="Layer_1" xmlns="http://www.w3.org/2000/svg" xmlns:xlink="http://www.w3.org/1999/xlink" x="0px" y="0px"
	 width="100%" viewBox="0 0 843 224" enable-background="new 0 0 843 224" xml:space="preserve">
<path fill="#FEFEFE" opacity="1.000000" stroke="none" 
	d="
M605.000000,225.000000 
	C403.380432,225.000000 202.260864,225.000000 1.070648,225.000000 
	C1.070648,150.397964 1.070648,75.795853 1.070648,1.096870 
	C281.999969,1.096870 563.000000,1.096870 843.971802,1.096870 
	C843.971802,75.739189 843.971802,150.369598 843.971802,225.000000 
	C764.462463,225.000000 684.981201,225.000000 605.000000,225.000000 
M21.999084,95.500000 
	C21.999084,124.609528 21.999084,153.719055 21.999084,182.886871 
	C80.466331,182.886871 138.384567,182.886871 196.455780,182.886871 
	C196.455780,131.739151 196.455780,80.851204 196.455780,29.821629 
	C138.208649,29.821629 80.298103,29.821629 21.999084,29.821629 
	C21.999084,51.560352 21.999084,73.030174 21.999084,95.500000 
M477.761230,143.347031 
	C487.574585,138.141907 492.890808,130.132660 492.927185,118.882942 
	C492.970093,105.616531 485.736481,97.854782 473.012665,94.047646 
	C474.404144,92.944420 475.140137,92.293571 475.941223,91.736214 
	C483.258759,86.644852 486.092957,79.571693 484.723297,70.920097 
	C483.355286,62.278931 477.509460,57.729057 469.479034,55.738197 
	C465.957916,54.865253 462.286591,54.267391 458.668121,54.180069 
	C448.184479,53.927071 437.686127,54.198132 427.208038,53.839676 
	C423.002869,53.695816 422.296997,55.278099 422.315399,59.025753 
	C422.452576,86.998070 422.387177,114.971359 422.398743,142.944351 
	C422.399261,144.241547 422.528442,145.538666 422.606842,147.006744 
	C436.755646,147.006744 450.690857,147.256027 464.607361,146.855316 
	C468.798767,146.734619 472.938171,144.807159 477.761230,143.347031 
M230.882629,125.499931 
	C230.882736,116.506325 230.816284,107.511742 230.948486,98.520073 
	C230.970551,97.020401 231.407028,94.765335 232.420258,94.172630 
	C236.967758,91.512466 241.562256,88.354866 246.564743,87.168373 
	C257.591248,84.553085 263.183533,88.890327 263.886047,100.219543 
	C264.472626,109.679314 264.211212,119.192947 264.280670,128.683044 
	C264.325317,134.783234 264.289032,140.883987 264.289032,147.043823 
	C268.625092,147.043823 272.334869,147.043823 276.094513,147.043823 
	C276.094513,130.685287 276.061981,114.716301 276.147675,98.747955 
	C276.155731,97.250084 276.440704,94.953423 277.395599,94.396301 
	C282.091461,91.656532 286.818115,88.368416 291.977142,87.148529 
	C302.763824,84.597954 308.290955,88.819633 309.111938,99.863991 
	C309.801636,109.142906 309.531769,118.495377 309.621185,127.815910 
	C309.682953,134.254456 309.633026,140.694046 309.633026,147.022675 
	C313.967377,147.022675 317.692566,147.022675 321.624603,147.022675 
	C321.624603,134.128250 321.715363,121.642830 321.581848,109.159813 
	C321.524994,103.847366 321.393097,98.480171 320.599091,93.243416 
	C319.205170,84.050095 313.181366,77.444588 305.465210,76.005653 
	C297.304901,74.483894 289.540985,75.534622 282.434052,80.053986 
	C279.396973,81.985313 276.438324,84.040001 273.470184,86.021164 
	C263.148010,73.776497 250.733826,71.959358 237.135284,80.522629 
	C235.268982,81.697876 233.352646,82.793678 231.210770,84.075066 
	C230.924622,81.427002 230.716599,79.502045 230.505981,77.552963 
	C226.582275,77.552963 223.016754,77.552963 219.339844,77.552963 
	C219.339844,100.928802 219.339844,123.971443 219.339844,147.151184 
	C223.255951,147.151184 226.849884,147.151184 230.882614,147.151184 
	C230.882614,140.084961 230.882614,133.292389 230.882629,125.499931 
M398.013794,92.654114 
	C395.895020,83.683693 389.871643,78.815269 381.194061,76.941650 
	C370.063141,74.538322 359.005066,75.557442 348.055145,78.185707 
	C347.029907,78.431793 345.551483,79.606483 345.469452,80.463547 
	C345.161743,83.678612 345.346191,86.940796 345.346191,90.740219 
	C347.056519,90.239113 347.971527,89.984993 348.877960,89.703270 
	C357.525513,87.015541 366.247406,85.183517 375.399109,86.639839 
	C383.676788,87.957069 387.071167,92.043922 386.654968,100.916962 
	C384.887207,101.051735 383.051971,101.035912 381.276154,101.352875 
	C371.338409,103.126610 360.888214,103.594017 351.605743,107.120613 
	C336.295685,112.937202 334.521240,135.091827 347.746887,144.876068 
	C356.682831,151.486816 370.848999,150.921860 382.050476,143.510468 
	C383.469849,142.571335 384.896576,141.643341 386.675385,140.477127 
	C386.945526,143.265381 387.131653,145.186447 387.319946,147.130127 
	C391.266266,147.130127 394.864105,147.130127 398.119415,147.130127 
	C398.119415,129.046814 398.119415,111.268181 398.013794,92.654114 
M700.452026,130.992599 
	C696.535522,126.123558 694.909912,120.533485 695.016785,113.647797 
	C712.245544,113.647797 729.295654,113.647797 746.841248,113.647797 
	C746.638123,109.480179 746.614929,106.006622 746.277527,102.563858 
	C743.930115,78.612564 719.707214,66.858528 699.192932,79.828537 
	C684.416077,89.171120 681.504272,103.617302 683.280457,119.565971 
	C684.721313,132.503983 691.277283,141.980484 703.926636,146.486526 
	C717.223267,151.223175 730.168823,149.248932 742.840820,144.026505 
	C743.819214,143.623276 744.938599,142.234314 745.019958,141.225189 
	C745.292358,137.844406 745.123413,134.428055 745.123413,130.762146 
	C740.670105,132.816788 737.029114,134.883331 733.137329,136.219360 
	C721.668518,140.156631 710.583923,140.488663 700.452026,130.992599 
M565.567322,143.808167 
	C566.275330,139.622971 566.983276,135.437775 567.653625,131.475037 
	C566.428833,131.058655 566.223938,130.912704 566.120544,130.965530 
	C564.952332,131.562378 563.801819,132.193726 562.642456,132.808151 
	C553.577515,137.612289 544.166443,140.211868 533.805786,137.851898 
	C523.037720,135.399139 515.581116,124.695808 517.580505,113.759773 
	C534.269287,113.759773 551.036743,113.759773 567.726929,113.759773 
	C569.643127,103.002960 567.168884,91.330200 561.776184,84.953369 
	C553.040405,74.623405 533.968262,71.985619 521.414368,79.616791 
	C507.027893,88.361885 503.729462,102.138062 504.914520,117.658485 
	C506.302032,135.829498 518.331238,147.501205 536.527954,148.925339 
	C546.404175,149.698288 555.724609,147.761337 565.567322,143.808167 
M586.378113,93.490082 
	C586.638245,106.470612 586.300232,119.500084 587.356934,132.415436 
	C588.135132,141.927231 594.332336,147.543488 603.750244,148.401733 
	C609.125549,148.891571 614.660767,147.927231 620.086304,147.294250 
	C621.089966,147.177155 622.535767,145.608109 622.695862,144.546158 
	C623.079590,142.000580 622.819885,139.358017 622.819885,136.597992 
	C618.777161,137.250488 615.377808,138.082642 611.939880,138.297577 
	C603.687866,138.813431 599.185059,135.855240 598.837097,128.133301 
	C598.232727,114.722786 598.669189,101.265358 598.669189,87.160736 
	C606.652466,87.160736 614.541016,87.160736 622.529236,87.160736 
	C622.529236,83.567909 622.529236,80.650307 622.529236,77.202316 
	C614.318115,77.202316 606.388794,77.202316 598.125916,77.202316 
	C598.125916,70.212395 598.125916,63.751614 598.125916,57.236580 
	C594.156860,57.236580 590.543030,57.236580 586.284424,57.236580 
	C586.284424,63.994476 586.284424,70.539940 586.284424,77.022133 
	C583.375366,77.203087 581.115601,77.343651 578.726440,77.492271 
	C578.726440,80.826782 578.726440,83.741394 578.726440,86.882072 
	C581.284241,87.086060 583.561951,87.267700 586.377991,87.492279 
	C586.377991,89.236359 586.377991,90.860542 586.378113,93.490082 
M671.856445,77.239952 
	C664.396851,77.239952 656.937256,77.239952 649.033569,77.239952 
	C649.033569,70.277084 649.033569,63.853649 649.033569,57.248009 
	C644.990051,57.248009 641.401917,57.248009 637.329895,57.248009 
	C637.329895,63.887047 637.329895,70.300049 637.329895,76.971443 
	C634.462646,77.158394 632.053894,77.315437 629.419922,77.487175 
	C629.419922,80.712021 629.419922,83.640808 629.419922,86.830208 
	C631.965881,87.055733 634.389465,87.270424 637.271240,87.525696 
	C637.271240,89.509102 637.269592,91.308464 637.271545,93.107834 
	C637.283691,104.427567 637.067078,115.753357 637.366089,127.065521 
	C637.757629,141.883392 645.308350,148.935898 660.038086,148.801849 
	C661.202026,148.791260 662.383240,148.823090 663.526184,148.643219 
	C675.857849,146.702576 673.201904,148.322021 673.292419,137.458755 
	C673.294495,137.207306 672.926880,136.952774 672.545654,136.458435 
	C671.884338,136.603546 671.095337,136.740936 670.326172,136.950684 
	C654.600159,141.239105 649.305847,137.295654 649.167725,121.010445 
	C649.073669,109.919899 649.149780,98.827904 649.149780,87.200455 
	C657.527222,87.200455 665.257202,87.200455 673.674927,87.200455 
	C673.318054,83.555656 673.018005,80.491249 671.856445,77.239952 
M781.766846,83.476418 
	C780.242737,84.549812 778.718628,85.623207 776.600159,87.115181 
	C776.356567,83.272232 776.181274,80.506546 775.990723,77.499924 
	C772.143799,77.499924 768.588623,77.499924 764.784180,77.499924 
	C764.784180,100.818680 764.784180,123.874214 764.784180,146.989288 
	C768.718994,146.989288 772.413879,146.989288 776.282837,146.989288 
	C776.282837,131.757767 776.419922,116.950233 776.186829,102.148529 
	C776.128418,98.433784 777.615417,96.429382 780.457642,94.467644 
	C787.835449,89.375336 795.970703,88.186066 804.751953,89.448456 
	C804.751953,85.291489 804.751953,81.549698 804.751953,77.660423 
	C796.307129,76.103996 789.158813,78.733223 781.766846,83.476418 
z"/>
<path fill="#CC1515" opacity="1.000000" stroke="none" 
	d="
M21.999084,95.000000 
	C21.999084,73.030174 21.999084,51.560352 21.999084,29.821629 
	C80.298103,29.821629 138.208649,29.821629 196.455780,29.821629 
	C196.455780,80.851204 196.455780,131.739151 196.455780,182.886871 
	C138.384567,182.886871 80.466331,182.886871 21.999084,182.886871 
	C21.999084,153.719055 21.999084,124.609528 21.999084,95.000000 
M47.339138,127.710396 
	C44.121181,136.385986 40.903225,145.061584 37.486706,154.272491 
	C45.907131,154.272491 53.649475,154.272491 61.791023,154.272491 
	C63.492218,149.281754 65.066444,144.024948 67.145355,138.975967 
	C67.726097,137.565521 69.770233,135.875595 71.187485,135.834183 
	C80.676727,135.556885 90.181747,135.559113 99.671303,135.831436 
	C101.108398,135.872665 103.158394,137.497055 103.773994,138.895706 
	C105.576180,142.990219 106.716415,147.371002 108.299545,151.570450 
	C108.722008,152.691116 109.779289,154.397751 110.584976,154.420441 
	C118.286278,154.637299 125.996140,154.550034 134.250626,154.550034 
	C122.863182,123.750504 111.894852,93.947731 100.701378,64.229767 
	C100.164337,62.803951 97.684433,61.332630 96.034111,61.241325 
	C89.721809,60.892097 83.359390,61.398804 77.054024,60.991875 
	C72.888184,60.723015 71.252220,62.459110 69.944580,66.091682 
	C62.622566,86.431938 55.082367,106.693649 47.339138,127.710396 
M169.048828,68.518661 
	C169.048828,64.765579 169.048828,61.012493 169.048828,57.312256 
	C161.117523,57.312256 153.912201,57.312256 146.742828,57.312256 
	C146.742828,89.865730 146.742828,122.044785 146.742828,154.228912 
	C154.334534,154.228912 161.537766,154.228912 169.048859,154.228912 
	C169.048859,125.714737 169.048859,97.613350 169.048828,68.518661 
z"/>
<path fill="#0B0B0B" opacity="1.000000" stroke="none" 
	d="
M477.431305,143.527191 
	C472.938171,144.807159 468.798767,146.734619 464.607361,146.855316 
	C450.690857,147.256027 436.755646,147.006744 422.606842,147.006744 
	C422.528442,145.538666 422.399261,144.241547 422.398743,142.944351 
	C422.387177,114.971359 422.452576,86.998070 422.315399,59.025753 
	C422.296997,55.278099 423.002869,53.695816 427.208038,53.839676 
	C437.686127,54.198132 448.184479,53.927071 458.668121,54.180069 
	C462.286591,54.267391 465.957916,54.865253 469.479034,55.738197 
	C477.509460,57.729057 483.355286,62.278931 484.723297,70.920097 
	C486.092957,79.571693 483.258759,86.644852 475.941223,91.736214 
	C475.140137,92.293571 474.404144,92.944420 473.012665,94.047646 
	C485.736481,97.854782 492.970093,105.616531 492.927185,118.882942 
	C492.890808,130.132660 487.574585,138.141907 477.431305,143.527191 
M435.076813,102.795425 
	C435.076813,114.030807 435.076813,125.266182 435.076813,137.382858 
	C445.807159,136.781250 456.120056,136.754639 466.272888,135.466339 
	C475.033600,134.354691 479.808441,128.080460 479.998383,119.715065 
	C480.243317,108.927025 474.852356,103.023750 463.243103,102.394226 
	C454.120117,101.899513 444.953094,102.217072 435.076813,102.795425 
M455.668335,91.437126 
	C459.307281,90.440048 463.267426,90.045105 466.514435,88.313232 
	C472.245178,85.256638 472.410034,79.433235 471.759125,73.846024 
	C471.182434,68.895752 467.583923,65.972305 463.038452,65.538460 
	C453.839142,64.660393 444.567261,64.542274 434.860107,64.089088 
	C434.860107,69.284416 434.860077,73.581596 434.860077,77.878769 
	C434.860077,82.313911 434.860107,86.749046 434.860107,91.454765 
	C441.860870,91.454765 448.313995,91.454765 455.668335,91.437126 
z"/>
<path fill="#0D0D0D" opacity="1.000000" stroke="none" 
	d="
M230.882629,125.999878 
	C230.882614,133.292389 230.882614,140.084961 230.882614,147.151184 
	C226.849884,147.151184 223.255951,147.151184 219.339844,147.151184 
	C219.339844,123.971443 219.339844,100.928802 219.339844,77.552963 
	C223.016754,77.552963 226.582275,77.552963 230.505981,77.552963 
	C230.716599,79.502045 230.924622,81.427002 231.210770,84.075066 
	C233.352646,82.793678 235.268982,81.697876 237.135284,80.522629 
	C250.733826,71.959358 263.148010,73.776497 273.470184,86.021164 
	C276.438324,84.040001 279.396973,81.985313 282.434052,80.053986 
	C289.540985,75.534622 297.304901,74.483894 305.465210,76.005653 
	C313.181366,77.444588 319.205170,84.050095 320.599091,93.243416 
	C321.393097,98.480171 321.524994,103.847366 321.581848,109.159813 
	C321.715363,121.642830 321.624603,134.128250 321.624603,147.022675 
	C317.692566,147.022675 313.967377,147.022675 309.633026,147.022675 
	C309.633026,140.694046 309.682953,134.254456 309.621185,127.815910 
	C309.531769,118.495377 309.801636,109.142906 309.111938,99.863991 
	C308.290955,88.819633 302.763824,84.597954 291.977142,87.148529 
	C286.818115,88.368416 282.091461,91.656532 277.395599,94.396301 
	C276.440704,94.953423 276.155731,97.250084 276.147675,98.747955 
	C276.061981,114.716301 276.094513,130.685287 276.094513,147.043823 
	C272.334869,147.043823 268.625092,147.043823 264.289032,147.043823 
	C264.289032,140.883987 264.325317,134.783234 264.280670,128.683044 
	C264.211212,119.192947 264.472626,109.679314 263.886047,100.219543 
	C263.183533,88.890327 257.591248,84.553085 246.564743,87.168373 
	C241.562256,88.354866 236.967758,91.512466 232.420258,94.172630 
	C231.407028,94.765335 230.970551,97.020401 230.948486,98.520073 
	C230.816284,107.511742 230.882736,116.506325 230.882629,125.999878 
z"/>
<path fill="#0C0C0C" opacity="1.000000" stroke="none" 
	d="
M398.066589,93.071838 
	C398.119415,111.268181 398.119415,129.046814 398.119415,147.130127 
	C394.864105,147.130127 391.266266,147.130127 387.319946,147.130127 
	C387.131653,145.186447 386.945526,143.265381 386.675385,140.477127 
	C384.896576,141.643341 383.469849,142.571335 382.050476,143.510468 
	C370.848999,150.921860 356.682831,151.486816 347.746887,144.876068 
	C334.521240,135.091827 336.295685,112.937202 351.605743,107.120613 
	C360.888214,103.594017 371.338409,103.126610 381.276154,101.352875 
	C383.051971,101.035912 384.887207,101.051735 386.654968,100.916962 
	C387.071167,92.043922 383.676788,87.957069 375.399109,86.639839 
	C366.247406,85.183517 357.525513,87.015541 348.877960,89.703270 
	C347.971527,89.984993 347.056519,90.239113 345.346191,90.740219 
	C345.346191,86.940796 345.161743,83.678612 345.469452,80.463547 
	C345.551483,79.606483 347.029907,78.431793 348.055145,78.185707 
	C359.005066,75.557442 370.063141,74.538322 381.194061,76.941650 
	C389.871643,78.815269 395.895020,83.683693 398.066589,93.071838 
M355.162292,135.455795 
	C363.733978,141.159851 377.314697,137.947357 385.672577,131.030258 
	C386.345520,130.473312 386.913818,129.369156 386.930298,128.507782 
	C387.040405,122.747276 386.987518,116.983643 386.987518,109.992691 
	C377.692383,111.448677 368.861053,111.958832 360.575806,114.356232 
	C350.758240,117.197029 348.463684,126.668571 355.162292,135.455795 
z"/>
<path fill="#0C0C0C" opacity="1.000000" stroke="none" 
	d="
M700.677551,131.284943 
	C710.583923,140.488663 721.668518,140.156631 733.137329,136.219360 
	C737.029114,134.883331 740.670105,132.816788 745.123413,130.762146 
	C745.123413,134.428055 745.292358,137.844406 745.019958,141.225189 
	C744.938599,142.234314 743.819214,143.623276 742.840820,144.026505 
	C730.168823,149.248932 717.223267,151.223175 703.926636,146.486526 
	C691.277283,141.980484 684.721313,132.503983 683.280457,119.565971 
	C681.504272,103.617302 684.416077,89.171120 699.192932,79.828537 
	C719.707214,66.858528 743.930115,78.612564 746.277527,102.563858 
	C746.614929,106.006622 746.638123,109.480179 746.841248,113.647797 
	C729.295654,113.647797 712.245544,113.647797 695.016785,113.647797 
	C694.909912,120.533485 696.535522,126.123558 700.677551,131.284943 
M734.135132,97.578903 
	C731.042297,87.928940 723.975952,83.917236 712.633850,85.372139 
	C702.689636,86.647736 695.868530,94.001175 695.338318,104.306458 
	C708.425598,104.306458 721.499817,104.306458 735.143738,104.306458 
	C734.858276,102.197144 734.599182,100.282509 734.135132,97.578903 
z"/>
<path fill="#0B0B0B" opacity="1.000000" stroke="none" 
	d="
M565.176636,143.935135 
	C555.724609,147.761337 546.404175,149.698288 536.527954,148.925339 
	C518.331238,147.501205 506.302032,135.829498 504.914520,117.658485 
	C503.729462,102.138062 507.027893,88.361885 521.414368,79.616791 
	C533.968262,71.985619 553.040405,74.623405 561.776184,84.953369 
	C567.168884,91.330200 569.643127,103.002960 567.726929,113.759773 
	C551.036743,113.759773 534.269287,113.759773 517.580505,113.759773 
	C515.581116,124.695808 523.037720,135.399139 533.805786,137.851898 
	C544.166443,140.211868 553.577515,137.612289 562.642456,132.808151 
	C563.801819,132.193726 564.952332,131.562378 566.120544,130.965530 
	C566.223938,130.912704 566.428833,131.058655 567.653625,131.475037 
	C566.983276,135.437775 566.275330,139.622971 565.176636,143.935135 
M521.202759,92.779320 
	C519.539062,96.400352 517.875366,100.021378 515.926331,104.263550 
	C530.383850,104.263550 543.416260,104.263550 556.425415,104.263550 
	C556.948120,94.676857 552.829895,87.865158 544.901917,85.981293 
	C536.185669,83.910133 528.001404,84.866425 521.202759,92.779320 
z"/>
<path fill="#0E0E0E" opacity="1.000000" stroke="none" 
	d="
M586.378052,92.987396 
	C586.377991,90.860542 586.377991,89.236359 586.377991,87.492279 
	C583.561951,87.267700 581.284241,87.086060 578.726440,86.882072 
	C578.726440,83.741394 578.726440,80.826782 578.726440,77.492271 
	C581.115601,77.343651 583.375366,77.203087 586.284424,77.022133 
	C586.284424,70.539940 586.284424,63.994476 586.284424,57.236580 
	C590.543030,57.236580 594.156860,57.236580 598.125916,57.236580 
	C598.125916,63.751614 598.125916,70.212395 598.125916,77.202316 
	C606.388794,77.202316 614.318115,77.202316 622.529236,77.202316 
	C622.529236,80.650307 622.529236,83.567909 622.529236,87.160736 
	C614.541016,87.160736 606.652466,87.160736 598.669189,87.160736 
	C598.669189,101.265358 598.232727,114.722786 598.837097,128.133301 
	C599.185059,135.855240 603.687866,138.813431 611.939880,138.297577 
	C615.377808,138.082642 618.777161,137.250488 622.819885,136.597992 
	C622.819885,139.358017 623.079590,142.000580 622.695862,144.546158 
	C622.535767,145.608109 621.089966,147.177155 620.086304,147.294250 
	C614.660767,147.927231 609.125549,148.891571 603.750244,148.401733 
	C594.332336,147.543488 588.135132,141.927231 587.356934,132.415436 
	C586.300232,119.500084 586.638245,106.470612 586.378052,92.987396 
z"/>
<path fill="#0D0D0D" opacity="1.000000" stroke="none" 
	d="
M672.287170,77.333389 
	C673.018005,80.491249 673.318054,83.555656 673.674927,87.200455 
	C665.257202,87.200455 657.527222,87.200455 649.149780,87.200455 
	C649.149780,98.827904 649.073669,109.919899 649.167725,121.010445 
	C649.305847,137.295654 654.600159,141.239105 670.326172,136.950684 
	C671.095337,136.740936 671.884338,136.603546 672.545654,136.458435 
	C672.926880,136.952774 673.294495,137.207306 673.292419,137.458755 
	C673.201904,148.322021 675.857849,146.702576 663.526184,148.643219 
	C662.383240,148.823090 661.202026,148.791260 660.038086,148.801849 
	C645.308350,148.935898 637.757629,141.883392 637.366089,127.065521 
	C637.067078,115.753357 637.283691,104.427567 637.271545,93.107834 
	C637.269592,91.308464 637.271240,89.509102 637.271240,87.525696 
	C634.389465,87.270424 631.965881,87.055733 629.419922,86.830208 
	C629.419922,83.640808 629.419922,80.712021 629.419922,77.487175 
	C632.053894,77.315437 634.462646,77.158394 637.329895,76.971443 
	C637.329895,70.300049 637.329895,63.887047 637.329895,57.248009 
	C641.401917,57.248009 644.990051,57.248009 649.033569,57.248009 
	C649.033569,63.853649 649.033569,70.277084 649.033569,77.239952 
	C656.937256,77.239952 664.396851,77.239952 672.287170,77.333389 
z"/>
<path fill="#080808" opacity="1.000000" stroke="none" 
	d="
M782.094604,83.281204 
	C789.158813,78.733223 796.307129,76.103996 804.751953,77.660423 
	C804.751953,81.549698 804.751953,85.291489 804.751953,89.448456 
	C795.970703,88.186066 787.835449,89.375336 780.457642,94.467644 
	C777.615417,96.429382 776.128418,98.433784 776.186829,102.148529 
	C776.419922,116.950233 776.282837,131.757767 776.282837,146.989288 
	C772.413879,146.989288 768.718994,146.989288 764.784180,146.989288 
	C764.784180,123.874214 764.784180,100.818680 764.784180,77.499924 
	C768.588623,77.499924 772.143799,77.499924 775.990723,77.499924 
	C776.181274,80.506546 776.356567,83.272232 776.600159,87.115181 
	C778.718628,85.623207 780.242737,84.549812 782.094604,83.281204 
z"/>
<path fill="#FEF9F9" opacity="1.000000" stroke="none" 
	d="
M47.477909,127.346291 
	C55.082367,106.693649 62.622566,86.431938 69.944580,66.091682 
	C71.252220,62.459110 72.888184,60.723015 77.054024,60.991875 
	C83.359390,61.398804 89.721809,60.892097 96.034111,61.241325 
	C97.684433,61.332630 100.164337,62.803951 100.701378,64.229767 
	C111.894852,93.947731 122.863182,123.750504 134.250626,154.550034 
	C125.996140,154.550034 118.286278,154.637299 110.584976,154.420441 
	C109.779289,154.397751 108.722008,152.691116 108.299545,151.570450 
	C106.716415,147.371002 105.576180,142.990219 103.773994,138.895706 
	C103.158394,137.497055 101.108398,135.872665 99.671303,135.831436 
	C90.181747,135.559113 80.676727,135.556885 71.187485,135.834183 
	C69.770233,135.875595 67.726097,137.565521 67.145355,138.975967 
	C65.066444,144.024948 63.492218,149.281754 61.791023,154.272491 
	C53.649475,154.272491 45.907131,154.272491 37.486706,154.272491 
	C40.903225,145.061584 44.121181,136.385986 47.477909,127.346291 
M89.634399,96.853081 
	C88.381126,93.403069 87.127861,89.953056 85.384468,85.153809 
	C81.306282,97.099739 77.717621,107.611725 74.077110,118.275627 
	C82.091034,118.275627 89.257629,118.275627 96.918976,118.275627 
	C94.450134,111.017242 92.166878,104.304474 89.634399,96.853081 
z"/>
<path fill="#FDF7F7" opacity="1.000000" stroke="none" 
	d="
M169.048843,69.015312 
	C169.048859,97.613350 169.048859,125.714737 169.048859,154.228912 
	C161.537766,154.228912 154.334534,154.228912 146.742828,154.228912 
	C146.742828,122.044785 146.742828,89.865730 146.742828,57.312256 
	C153.912201,57.312256 161.117523,57.312256 169.048828,57.312256 
	C169.048828,61.012493 169.048828,64.765579 169.048843,69.015312 
z"/>
<path fill="#FAFAFA" opacity="1.000000" stroke="none" 
	d="
M435.441223,102.484619 
	C444.953094,102.217072 454.120117,101.899513 463.243103,102.394226 
	C474.852356,103.023750 480.243317,108.927025 479.998383,119.715065 
	C479.808441,128.080460 475.033600,134.354691 466.272888,135.466339 
	C456.120056,136.754639 445.807159,136.781250 435.076813,137.382858 
	C435.076813,125.266182 435.076813,114.030807 435.441223,102.484619 
z"/>
<path fill="#F6F6F6" opacity="1.000000" stroke="none" 
	d="
M455.217712,91.445946 
	C448.313995,91.454765 441.860870,91.454765 434.860107,91.454765 
	C434.860107,86.749046 434.860077,82.313911 434.860077,77.878769 
	C434.860077,73.581596 434.860107,69.284416 434.860107,64.089088 
	C444.567261,64.542274 453.839142,64.660393 463.038452,65.538460 
	C467.583923,65.972305 471.182434,68.895752 471.759125,73.846024 
	C472.410034,79.433235 472.245178,85.256638 466.514435,88.313232 
	C463.267426,90.045105 459.307281,90.440048 455.217712,91.445946 
z"/>
<path fill="#F8F8F8" opacity="1.000000" stroke="none" 
	d="
M354.873383,135.198669 
	C348.463684,126.668571 350.758240,117.197029 360.575806,114.356232 
	C368.861053,111.958832 377.692383,111.448677 386.987518,109.992691 
	C386.987518,116.983643 387.040405,122.747276 386.930298,128.507782 
	C386.913818,129.369156 386.345520,130.473312 385.672577,131.030258 
	C377.314697,137.947357 363.733978,141.159851 354.873383,135.198669 
z"/>
<path fill="#F2F2F2" opacity="1.000000" stroke="none" 
	d="
M734.237549,97.973389 
	C734.599182,100.282509 734.858276,102.197144 735.143738,104.306458 
	C721.499817,104.306458 708.425598,104.306458 695.338318,104.306458 
	C695.868530,94.001175 702.689636,86.647736 712.633850,85.372139 
	C723.975952,83.917236 731.042297,87.928940 734.237549,97.973389 
z"/>
<path fill="#F2F2F2" opacity="1.000000" stroke="none" 
	d="
M521.449158,92.510170 
	C528.001404,84.866425 536.185669,83.910133 544.901917,85.981293 
	C552.829895,87.865158 556.948120,94.676857 556.425415,104.263550 
	C543.416260,104.263550 530.383850,104.263550 515.926331,104.263550 
	C517.875366,100.021378 519.539062,96.400352 521.449158,92.510170 
z"/>
<path fill="#CF2323" opacity="1.000000" stroke="none" 
	d="
M89.759010,97.222397 
	C92.166878,104.304474 94.450134,111.017242 96.918976,118.275627 
	C89.257629,118.275627 82.091034,118.275627 74.077110,118.275627 
	C77.717621,107.611725 81.306282,97.099739 85.384468,85.153809 
	C87.127861,89.953056 88.381126,93.403069 89.759010,97.222397 
z"/>
</svg>